<svg width="229" height="225" viewBox="0 0 229 225" fill="none" xmlns="http://www.w3.org/2000/svg">
<path d="M87.9125 222.328C81.9082 220.2 76.1008 214.855 72.9274 208.539C71.8361 206.367 71.0188 205.236 70.1331 202.977C66.8237 194.533 69.8302 188.868 69.6361 179.828C69.442 170.788 75.6366 163.116 69.139 156.68C62.4582 150.063 54.2953 156.575 44.7842 156.508C35.273 156.441 29.1466 160.056 20.4293 156.337C18.1832 155.378 17.0971 154.502 14.9619 153.326C2.24139 146.32 0.0507812 140.384 0.0507812 112.915C0.0507812 84.9289 2.35154 79.0127 15.7331 72.5897C17.9553 71.5231 19.1086 70.7166 21.4234 69.8584C29.8432 66.7371 35.4758 69.663 44.4799 69.5378C72.4014 69.1496 69.4304 72.1906 69.8176 43.6028C69.9408 34.5038 66.2083 28.555 70.1331 20.3035C70.7502 19.006 71.2276 18.3434 71.929 17.0875C75.0016 11.5851 80.8565 6.00581 86.0383 3.64215C87.9794 2.75676 89.0001 2.1024 91.0087 1.37496C99.5633 -1.72328 105.247 1.38217 114.369 1.3868C123.492 1.39143 129.186 -1.72676 137.73 1.39864C139.392 2.00648 140.252 2.51762 141.867 3.23462C147.288 5.64069 153.121 11.432 156.163 17.4294C157.117 19.3107 157.811 20.2961 158.606 22.2468C162.114 30.8561 158.797 36.7083 158.92 45.9747C159.305 75.0661 159.917 72.7758 150.223 78.5041C138.101 85.6669 137.954 85.3129 138.338 49.7725C138.593 26.0967 138.352 24.8222 133.118 22.1767C131.922 21.5722 131.299 21.1336 130.056 20.6289C124.072 18.1996 119.946 20.8258 113.468 20.952C106.989 21.0782 102.585 18.275 96.8789 21.2751C95.7898 21.8477 95.2653 22.3099 94.2313 22.9729C89.6859 25.8878 89.1901 30.0806 89.8825 59.7498C90.1268 70.2216 97.9951 79.0704 90.5082 86.5644C89.8622 87.211 89.4383 87.5108 88.7528 88.1172C88.0673 88.7236 87.7125 89.0971 86.9974 89.67C77.845 97.003 68.5292 89.8508 56.6956 89.9667C44.862 90.0826 36.5295 84.2925 26.3938 90.2634C25.5243 90.7756 25.0737 91.1198 24.2278 91.6685C20.4604 94.1127 19.9323 96.9373 19.9323 114.645C19.9323 121.285 15.7191 126.439 19.9323 131.648C20.721 132.623 21.3357 133.019 22.2349 133.898C25.3391 136.932 31.6257 137.586 51.2457 136.914C81.4422 135.88 95.9959 129.299 130.772 100.954C160.141 77.0167 174.933 69.986 195.884 70.0078C199.572 70.0117 201.761 69.1006 205.327 70.0177C207.49 70.5737 208.526 71.382 210.576 72.2562C217.023 75.0064 223.923 82.2199 226.111 88.4988C226.729 90.2718 227.185 91.233 227.694 93.0387C229.97 101.113 227.688 106.11 227.684 114.485C227.68 122.861 230.653 128.079 227.674 135.932C226.927 137.9 226.24 138.893 225.32 140.79C222.413 146.792 217.791 151.176 211.291 154.101C209.35 154.974 208.325 155.611 206.321 156.337C197.764 159.434 192.083 156.633 182.96 156.823C173.837 157.012 166.115 151.064 159.599 157.308C152.945 163.686 159.296 171.521 159.102 180.628C158.908 189.735 162.356 195.61 158.605 203.948C157.857 205.612 157.238 206.449 156.362 208.052C153.501 213.285 148.276 218.393 142.922 221.189C141.283 222.045 140.428 222.656 138.724 223.382C130.361 226.944 124.486 223.503 115.364 223.58C106.241 223.658 100.738 226.352 92.0028 223.779C90.3758 223.3 89.5098 222.895 87.9125 222.328ZM131.488 203.419C133.522 202.867 135.871 201.461 136.707 200.294C137.301 199.465 137.676 199.028 138.227 198.172C144.165 188.947 138.227 181.163 138.227 170.264C138.227 159.365 131.625 151.139 138.227 142.356C139.078 141.225 139.689 140.694 140.625 139.63C141.561 138.565 141.997 137.886 143.022 136.903C151.296 128.977 161.1 136.607 172.684 136.418C211.416 135.783 208.814 137.407 208.792 113.89C208.776 96.1585 208.236 94.1305 202.828 91.4795C189.766 85.0755 167.74 94.3668 136.736 119.36C125.292 128.586 116.054 134.987 96.2935 147.382C94.0871 148.767 91.847 148.65 90.6435 150.927C89.8677 152.395 90.2524 153.477 90.0017 155.11C89.6487 157.412 89.5072 167.832 89.6872 178.267C89.8151 185.676 86.3542 190.75 90.0146 197.239C90.6144 198.302 91.078 198.823 91.7594 199.838C94.6172 204.096 120.426 206.422 131.488 203.419Z" fill="url(#paint0_linear_2_3)"/>
<defs>
<linearGradient id="paint0_linear_2_3" x1="227.644" y1="112.565" x2="0.000251798" y2="112.565" gradientUnits="userSpaceOnUse">
<stop offset="0.302867" stop-color="#557B68"/>
<stop offset="0.715322" stop-color="#EE2D2E"/>
</linearGradient>
</defs>
</svg>
